<svg xmlns="http://www.w3.org/2000/svg" version="1.1" xmlns:xlink="http://www.w3.org/1999/xlink" width="200" height="200"><svg xmlns="http://www.w3.org/2000/svg" version="1.1" xmlns:xlink="http://www.w3.org/1999/xlink" viewBox="0 0 200 200"><rect width="200" height="200" fill="url('#gradient')"></rect><defs><linearGradient id="SvgjsLinearGradient1001" gradientTransform="rotate(45 0.5 0.5)"><stop offset="0%" stop-color="#e8d4de"></stop><stop offset="100%" stop-color="#bdcabc"></stop></linearGradient></defs><g><g fill="#d13a80" transform="matrix(5.55366588550385,0,0,5.55366588550385,13.053180462379373,139.49082069505528)" stroke="#d21d81" stroke-width="0.2"><path d="M1.07-14.22L5.58-14.22L8.75-4.33L11.91-14.22L16.43-14.22L16.43 0L12.99 0L12.99-3.32L13.32-10.12L9.88 0L7.62 0L4.17-10.13L4.50-3.32L4.50 0L1.07 0L1.07-14.22ZM30.24-7.60L30.24-1.76Q29.45-0.88 27.93-0.34Q26.41 0.20 24.59 0.20L24.59 0.20Q21.80 0.20 20.13-1.51Q18.46-3.22 18.34-6.27L18.34-6.27L18.33-7.50Q18.33-9.60 19.07-11.17Q19.81-12.73 21.20-13.58Q22.58-14.42 24.39-14.42L24.39-14.42Q27.05-14.42 28.52-13.21Q29.99-11.99 30.23-9.58L30.23-9.58L26.93-9.58Q26.76-10.77 26.17-11.28Q25.59-11.79 24.51-11.79L24.51-11.79Q23.22-11.79 22.52-10.69Q21.82-9.60 21.81-7.57L21.81-7.57L21.81-6.71Q21.81-4.58 22.53-3.51Q23.26-2.44 24.82-2.44L24.82-2.44Q26.16-2.44 26.82-3.04L26.82-3.04L26.82-5.24L24.43-5.24L24.43-7.60L30.24-7.60Z"></path></g></g></svg><style>@media (prefers-color-scheme: light) { :root { filter: none; } }
@media (prefers-color-scheme: dark) { :root { filter: none; } }
</style></svg>